<?xml version="1.0" encoding="UTF-8" standalone="no"?>
<svg
   width="416"
   height="89"
   xml:space="preserve"
   overflow="hidden"
   version="1.1"
   id="svg15"
   sodipodi:docname="LogoAdobeStock.svg"
   inkscape:version="1.2.2 (732a01da63, 2022-12-09)"
   xmlns:inkscape="http://www.inkscape.org/namespaces/inkscape"
   xmlns:sodipodi="http://sodipodi.sourceforge.net/DTD/sodipodi-0.dtd"
   xmlns="http://www.w3.org/2000/svg"
   xmlns:svg="http://www.w3.org/2000/svg"><sodipodi:namedview
     id="namedview17"
     pagecolor="#505050"
     bordercolor="#ffffff"
     borderopacity="1"
     inkscape:showpageshadow="0"
     inkscape:pageopacity="0"
     inkscape:pagecheckerboard="1"
     inkscape:deskcolor="#505050"
     showgrid="false"
     inkscape:zoom="2.5343659"
     inkscape:cx="231.02426"
     inkscape:cy="73.588427"
     inkscape:window-width="1920"
     inkscape:window-height="991"
     inkscape:window-x="-9"
     inkscape:window-y="-9"
     inkscape:window-maximized="1"
     inkscape:current-layer="svg15" /><defs
     id="defs5"><inkscape:path-effect
       effect="powerclip"
       id="path-effect322"
       is_visible="true"
       lpeversion="1"
       inverse="true"
       flatten="false"
       hide_clip="false"
       message="Usar a regra de preenchimento par ou ímpar na caixa de diálogo &lt;b&gt;preenchimento e contorno&lt;/b&gt; se nenhum resultado nivelar após converter o clipe em caminhos." /><clipPath
       id="clip0"><rect
         x="170"
         y="168"
         width="416"
         height="89"
         id="rect2" /></clipPath><filter
       id="mask-powermask-path-effect304_inverse"
       inkscape:label="filtermask-powermask-path-effect304"
       style="color-interpolation-filters:sRGB"
       height="100"
       width="100"
       x="-50"
       y="-50"><feColorMatrix
         id="mask-powermask-path-effect304_primitive1"
         values="1"
         type="saturate"
         result="fbSourceGraphic" /><feColorMatrix
         id="mask-powermask-path-effect304_primitive2"
         values="-1 0 0 0 1 0 -1 0 0 1 0 0 -1 0 1 0 0 0 1 0 "
         in="fbSourceGraphic" /></filter><clipPath
       clipPathUnits="userSpaceOnUse"
       id="clipPath318"><path
         d="m 32.574,65.0293 c -2.2547,0 -4.3313,-0.2373 -6.1707,-0.5933 -1.8393,-0.356 -3.382,-0.89 -4.6873,-1.4833 -0.356,-0.178 -0.4747,-0.534 -0.4747,-1.0087 v -7.2387 c 0,-0.178 0.0594,-0.2373 0.178,-0.356 0.0594,-0.0593 0.2374,-0.0593 0.356,0.0594 1.7207,1.068 3.5007,1.8393 5.3994,2.3733 1.8986,0.534 3.738,0.7713 5.5773,0.7713 2.314,0 3.9753,-0.356 4.984,-1.068 1.0087,-0.712 1.4833,-1.602 1.4833,-2.67 0,-0.712 -0.178,-1.3053 -0.4746,-1.8393 -0.356,-0.534 -0.89,-1.068 -1.7207,-1.602 -0.8307,-0.534 -1.8987,-1.068 -3.3227,-1.602 l -3.026,-1.3053 c -2.492,-1.068 -4.3906,-2.1954 -5.8146,-3.382 -1.424,-1.1867 -2.3734,-2.492 -2.848,-3.8567 -0.534,-1.3647 -0.8307,-2.848 -0.8307,-4.45 0,-2.1953 0.534,-4.2127 1.602,-5.9333 1.1273,-1.78 2.67,-3.204 4.8653,-4.2127 2.136,-1.0087 4.8654,-1.5427 8.0694,-1.5427 1.8986,0 3.738,0.1187 5.4586,0.356 1.6614,0.2374 3.026,0.6527 4.0347,1.1274 0.2967,0.178 0.4153,0.4153 0.4153,0.7713 v 6.8827 c 0,0.0593 -0.0593,0.178 -0.178,0.2373 -0.05929,0.0593 -0.2373,0.0593 -0.356,-0.0593 -1.1866,-0.6527 -2.67,-1.1274 -4.2126,-1.5427 -1.602,-0.2373 -3.3227,-0.4153 -5.0434,-0.4153 -1.1273,0 -2.1953,0.0593 -2.9666,0.2966 -0.8307,0.2374 -1.4834,0.4747 -1.958,0.7714 -0.4747,0.2966 -0.89,0.712 -1.1274,1.1273 -0.2373,0.4747 -0.356,0.9493 -0.356,1.424 0,0.6527 0.178,1.246 0.534,1.7207 0.356,0.534 1.0087,1.0086 1.8394,1.5426 0.8306,0.534 2.0173,1.1274 3.5006,1.78 L 37.558,40.94 c 2.67,1.1273 4.7467,2.2547 6.23,3.5007 1.4833,1.246 2.5513,2.5513 3.1447,4.0346 0.5933,1.4834 0.89,2.9667 0.89,4.6874 0,2.3733 -0.6527,4.5093 -1.8987,6.2893 -1.3053,1.78 -3.026,3.204 -5.2807,4.1533 -2.2546,0.9494 -4.984,1.424 -8.0693,1.424 z m 35.778,-6.586 v 4.984 c 0,0.4154 -0.178,0.712 -0.4747,0.7714 -0.7713,0.2373 -1.602,0.4153 -2.4326,0.5933 -0.8307,0.178 -1.8394,0.2373 -2.9074,0.2373 -2.67,0 -4.6873,-0.712 -6.23,-2.0766 C 54.824,61.588 54.0527,59.3333 54.0527,56.3073 V 41.296 h -3.6194 c -0.356,0 -0.4746,-0.178 -0.4746,-0.534 V 34.71 c 0,-0.356 0.178,-0.4747 0.534,-0.4747 h 3.6193 c 0.0593,-0.712 0.0593,-1.4833 0.178,-2.3733 0.05931,-0.89 0.1187,-1.8393 0.2373,-2.7293 0.0594,-0.89 0.178,-1.6614 0.2374,-2.2547 0.0593,-0.1187 0.0593,-0.2373 0.178,-0.356 0.0593,-0.0593 0.178,-0.178 0.2966,-0.2373 l 7.2387,-0.89 c 0.1187,-0.0594 0.2373,-0.0594 0.2967,0 0.0593,0.0593 0.1186,0.178 0.1186,0.356 -0.0593,0.9493 -0.1186,2.1953 -0.178,3.7973 -0.0593,1.602 -0.0593,3.1447 -0.1186,4.6873 h 5.6366 c 0.2374,0 0.356,0.178 0.356,0.4747 v 6.1707 c 0,0.2373 -0.0593,0.356 -0.2966,0.4153 H 62.5373 V 54.29 c 0,1.3647 0.2374,2.3733 0.712,2.9667 0.4747,0.5933 1.3054,0.89 2.5514,0.89 0.356,0 0.712,0 1.0086,-0.0594 0.356,0 0.6527,-0.0593 1.0087,-0.0593 0.1187,-0.0593 0.2373,-0.0593 0.356,0.0593 0.1187,0.0594 0.178,0.178 0.178,0.356 z"
         fill="#ffffff"
         id="path320"
         style="display:none;stroke-width:0.999995" /><path
         id="lpe_path-effect322"
         style="stroke-width:0.999995"
         class="powerclip"
         d="M -5,-5 H 96.9667 V 93.644 H -5 Z m 37.574,70.0293 c 3.0853,0 5.8147,-0.4746 8.0693,-1.424 2.2547,-0.9493 3.9754,-2.3733 5.2807,-4.1533 1.246,-1.78 1.8987,-3.916 1.8987,-6.2893 0,-1.7207 -0.2967,-3.204 -0.89,-4.6874 -0.5934,-1.4833 -1.6614,-2.7886 -3.1447,-4.0346 -1.4833,-1.246 -3.56,-2.3734 -6.23,-3.5007 l -2.2547,-0.8307 c -1.4833,-0.6526 -2.67,-1.246 -3.5006,-1.78 -0.8307,-0.534 -1.4834,-1.0086 -1.8394,-1.5426 -0.356,-0.4747 -0.534,-1.068 -0.534,-1.7207 0,-0.4747 0.1187,-0.9493 0.356,-1.424 0.2374,-0.4153 0.6527,-0.8307 1.1274,-1.1273 0.4746,-0.2967 1.1273,-0.534 1.958,-0.7714 0.7713,-0.2373 1.8393,-0.2966 2.9666,-0.2966 1.7207,0 3.4414,0.178 5.0434,0.4153 1.5426,0.4153 3.026,0.89 4.2126,1.5427 0.1187,0.1186 0.29671,0.1186 0.356,0.0593 0.1187,-0.0593 0.178,-0.178 0.178,-0.2373 V 26.344 c 0,-0.356 -0.1186,-0.5933 -0.4153,-0.7713 -1.0087,-0.4747 -2.3733,-0.89 -4.0347,-1.1274 -1.7206,-0.2373 -3.56,-0.356 -5.4586,-0.356 -3.204,0 -5.9334,0.534 -8.0694,1.5427 -2.1953,1.0087 -3.738,2.4327 -4.8653,4.2127 -1.068,1.7206 -1.602,3.738 -1.602,5.9333 0,1.602 0.2967,3.0853 0.8307,4.45 0.4746,1.3647 1.424,2.67 2.848,3.8567 1.424,1.1866 3.3226,2.314 5.8146,3.382 l 3.026,1.3053 c 1.424,0.534 2.492,1.068 3.3227,1.602 0.8307,0.534 1.3647,1.068 1.7207,1.602 0.2966,0.534 0.4746,1.1273 0.4746,1.8393 0,1.068 -0.4746,1.958 -1.4833,2.67 -1.0087,0.712 -2.67,1.068 -4.984,1.068 -1.8393,0 -3.6787,-0.2373 -5.5773,-0.7713 C 25.276,56.248 23.496,55.4767 21.7753,54.4087 21.6567,54.29 21.4787,54.29 21.4193,54.3493 c -0.1186,0.1187 -0.178,0.178 -0.178,0.356 v 7.2387 c 0,0.4747 0.1187,0.8307 0.4747,1.0087 1.3053,0.5933 2.848,1.1273 4.6873,1.4833 1.8394,0.356 3.916,0.5933 6.1707,0.5933 z m 35.778,-6.586 c 0,-0.178 -0.0593,-0.2966 -0.178,-0.356 -0.1187,-0.1186 -0.2373,-0.1186 -0.356,-0.0593 -0.356,0 -0.6527,0.0593 -1.0087,0.0593 -0.2966,0.0594 -0.6526,0.0594 -1.0086,0.0594 -1.246,0 -2.0767,-0.2967 -2.5514,-0.89 -0.4746,-0.5934 -0.712,-1.602 -0.712,-2.9667 V 41.296 h 5.7554 c 0.2373,-0.0593 0.2966,-0.178 0.2966,-0.4153 V 34.71 c 0,-0.2967 -0.1186,-0.4747 -0.356,-0.4747 h -5.6366 c 0.0593,-1.5426 0.0593,-3.0853 0.1186,-4.6873 0.0594,-1.602 0.1187,-2.848 0.178,-3.7973 0,-0.178 -0.0593,-0.2967 -0.1186,-0.356 -0.0594,-0.0594 -0.178,-0.0594 -0.2967,0 l -7.2387,0.89 c -0.1186,0.0593 -0.2373,0.178 -0.2966,0.2373 -0.1187,0.1187 -0.1187,0.2373 -0.178,0.356 -0.0594,0.5933 -0.178,1.3647 -0.2374,2.2547 -0.1186,0.89 -0.17799,1.8393 -0.2373,2.7293 -0.1187,0.89 -0.1187,1.6613 -0.178,2.3733 h -3.6193 c -0.356,0 -0.534,0.1187 -0.534,0.4747 v 6.052 c 0,0.356 0.1186,0.534 0.4746,0.534 h 3.6194 v 15.0113 c 0,3.026 0.7713,5.2807 2.2546,6.6454 1.5427,1.3646 3.56,2.0766 6.23,2.0766 1.068,0 2.0767,-0.0593 2.9074,-0.2373 0.8306,-0.178 1.6613,-0.356 2.4326,-0.5933 0.2967,-0.0594 0.4747,-0.356 0.4747,-0.7714 z" /></clipPath></defs><g
     clip-path="url(#clip0)"
     transform="translate(-170 -168)"
     id="g13"
     style="fill:#ffffff"><path
       d="M 0,72.3867 V 16.2573 C 0,15.1893 0.0593333,14.1213 0.296667,13.1127 0.534,12.104 0.830667,11.036 1.246,10.0867 1.66133,9.13733 2.136,8.188 2.72933,7.23867 3.32267,6.28933 4.03467,5.518 4.74667,4.74667 5.518,3.97533 6.34867,3.32267 7.23867,2.72933 8.12867,2.136 9.078,1.602 10.0867,1.246 11.0953,0.830667 12.104,0.534 13.1127,0.296667 14.1807,0.0593333 15.1893,0 16.2573,0 h 59.452 c 1.068,0 2.136,0.0593333 3.1447,0.296667 1.068,0.237333 2.0767,0.534 3.026,0.949333 0.9493,0.41533 1.8987,0.89 2.848,1.48333 0.9493,0.59334 1.7207,1.30534 2.492,2.01734 0.7713,0.77133 1.424,1.602 2.0173,2.492 0.5934,0.89 1.1274,1.83933 1.4834,2.84803 0.4153,1.0086 0.712,2.0173 0.9493,3.026 0.2373,1.068 0.2967,2.0766 0.2967,3.1446 v 56.1294 c 0,1.068 -0.0594,2.136 -0.2967,3.1446 -0.2373,1.068 -0.534,2.0767 -0.9493,3.026 -0.4154,1.0087 -0.89,1.8987 -1.4834,2.848 -0.5933,0.9494 -1.3053,1.7207 -2.0173,2.492 -0.7713,0.7714 -1.602,1.424 -2.492,2.0174 -0.89,0.5933 -1.8393,1.1273 -2.848,1.4833 -1.0087,0.4153 -2.0173,0.712 -3.026,0.9493 -1.068,0.2374 -2.0767,0.2967 -3.1447,0.2967 H 16.3167 c -1.068,0 -2.136,-0.0593 -3.1447,-0.2967 C 12.104,88.11 11.0953,87.8133 10.146,87.398 9.13733,86.9827 8.24733,86.508 7.298,85.9147 6.34867,85.3213 5.57733,84.6093 4.806,83.8973 4.03467,83.126 3.382,82.2953 2.78867,81.4053 2.19533,80.5153 1.66133,79.566 1.30533,78.5573 0.89,77.5487 0.593333,76.54 0.356,75.5313 0.118667,74.582 0,73.514 0,72.3867 Z"
       fill="#0C131F"
       transform="matrix(1.00161 0 0 1 170 168.148)"
       id="path7"
       clip-path="url(#clipPath318)"
       inkscape:path-effect="#path-effect322"
       inkscape:original-d="M0 72.3867 0 16.2573C0 15.1893 0.0593333 14.1213 0.296667 13.1127 0.534 12.104 0.830667 11.036 1.246 10.0867 1.66133 9.13733 2.136 8.188 2.72933 7.23867 3.32267 6.28933 4.03467 5.518 4.74667 4.74667 5.518 3.97533 6.34867 3.32267 7.23867 2.72933 8.12867 2.136 9.078 1.602 10.0867 1.246 11.0953 0.830667 12.104 0.534 13.1127 0.296667 14.1807 0.0593333 15.1893 -2.63493e-16 16.2573 -2.63493e-16L75.7093 -2.63493e-16C76.7773 -2.63493e-16 77.8453 0.0593333 78.854 0.296667 79.922 0.534 80.9307 0.830667 81.88 1.246 82.8293 1.66133 83.7787 2.136 84.728 2.72933 85.6773 3.32267 86.4487 4.03467 87.22 4.74667 87.9913 5.518 88.644 6.34867 89.2373 7.23867 89.8307 8.12867 90.3647 9.078 90.7207 10.0867 91.136 11.0953 91.4327 12.104 91.67 13.1127 91.9073 14.1807 91.9667 15.1893 91.9667 16.2573L91.9667 72.3867C91.9667 73.4547 91.9073 74.5227 91.67 75.5313 91.4327 76.5993 91.136 77.608 90.7207 78.5573 90.3053 79.566 89.8307 80.456 89.2373 81.4053 88.644 82.3547 87.932 83.126 87.22 83.8973 86.4487 84.6687 85.618 85.3213 84.728 85.9147 83.838 86.508 82.8887 87.042 81.88 87.398 80.8713 87.8133 79.8627 88.11 78.854 88.3473 77.786 88.5847 76.7773 88.644 75.7093 88.644L16.3167 88.644C15.2487 88.644 14.1807 88.5847 13.172 88.3473 12.104 88.11 11.0953 87.8133 10.146 87.398 9.13733 86.9827 8.24733 86.508 7.298 85.9147 6.34867 85.3213 5.57733 84.6093 4.806 83.8973 4.03467 83.126 3.382 82.2953 2.78867 81.4053 2.19533 80.5153 1.66133 79.566 1.30533 78.5573 0.89 77.5487 0.593333 76.54 0.356 75.5313 0.118667 74.582 5.92859e-16 73.514 5.92859e-16 72.3867Z"
       style="fill:#ffffff" /><path
       d="M126.499 47.2293 135.458 47.2293C135.28 46.458 134.983 45.6273 134.627 44.678 134.271 43.7287 134.034 42.72 133.678 41.652 133.322 40.584 133.025 39.516 132.669 38.3887 132.313 37.3207 132.017 36.2527 131.72 35.3033 131.364 34.2947 131.186 33.4047 130.949 32.574L130.889 32.574C130.533 33.8793 130.118 35.3627 129.703 37.024 129.169 38.804 128.694 40.5247 128.101 42.3047 127.567 44.0253 127.033 45.6867 126.499 47.2293ZM137.653 54.29 124.481 54.29 121.693 62.7153C121.633 63.0713 121.337 63.19 121.04 63.19L114.513 63.19C114.098 63.19 113.979 63.012 114.039 62.656L125.431 29.7853C125.549 29.4293 125.609 29.1327 125.787 28.658 125.905 28.1833 125.965 27.4713 125.965 26.2847 125.965 25.988 126.083 25.8693 126.321 25.8693L135.458 25.8693C135.755 25.8693 135.873 25.988 135.933 26.2253L148.867 62.7747C148.986 63.1307 148.867 63.3087 148.571 63.3087L141.154 63.3087C140.798 63.3087 140.62 63.19 140.561 62.8933L137.653 54.29ZM168.447 56.6633 168.447 41.2367C168.151 41.118 167.854 41.0587 167.498 41.0587 167.083 40.9993 166.727 40.9993 166.371 40.9993 164.947 40.9993 163.582 41.296 162.336 41.8893 161.149 42.4827 160.081 43.3727 159.369 44.5 158.657 45.6273 158.242 47.1107 158.242 48.95 158.242 50.374 158.42 51.5607 158.776 52.5693 159.191 53.578 159.725 54.468 160.378 55.0613 161.031 55.714 161.861 56.1887 162.751 56.5447 163.701 56.9007 164.65 57.0193 165.777 57.0193 166.252 57.0193 166.727 57.0193 167.201 56.96 167.617 56.96 168.032 56.782 168.447 56.6633ZM164.887 63.8427C162.039 63.8427 159.547 63.3087 157.233 62.2407 154.919 61.1727 153.199 59.5113 151.893 57.4347 150.588 55.2987 149.935 52.5693 149.935 49.306 149.935 46.5173 150.588 44.0253 151.893 41.83 153.199 39.516 155.038 37.7953 157.589 36.3713 160.081 35.0067 163.048 34.354 166.489 34.354L167.32 34.354C167.617 34.354 167.913 34.4133 168.388 34.4133L168.388 23.1993C168.388 22.9027 168.507 22.784 168.803 22.784L175.983 22.784C176.161 22.784 176.339 22.9027 176.339 23.14L176.339 56.8413C176.339 57.494 176.339 58.206 176.398 58.9773 176.457 59.808 176.457 60.4607 176.576 60.9947 176.576 61.2913 176.457 61.41 176.161 61.5287 174.203 62.3593 172.245 62.9527 170.346 63.3087 168.507 63.6053 166.667 63.8427 164.887 63.8427ZM194.732 40.94C193.664 40.94 192.655 41.296 191.765 41.8893 190.875 42.4827 190.223 43.432 189.689 44.678 189.155 45.8647 188.917 47.2887 188.917 49.0687 188.917 50.73 189.214 52.154 189.689 53.4 190.163 54.5867 190.875 55.536 191.825 56.248 192.774 56.96 193.842 57.2567 195.147 57.2567 196.215 57.2567 197.224 56.9007 198.114 56.3073 199.004 55.714 199.716 54.7647 200.191 53.5187 200.665 52.2727 200.962 50.7893 200.962 49.0687 200.962 47.526 200.784 46.1613 200.369 44.9747 199.953 43.788 199.301 42.72 198.411 42.008 197.461 41.296 196.215 40.94 194.732 40.94ZM195.088 34.354C197.402 34.354 199.419 34.7693 201.14 35.5407 202.801 36.3713 204.285 37.4393 205.471 38.804 206.599 40.1687 207.548 41.7113 208.082 43.4913 208.675 45.2713 208.972 47.0513 208.972 49.0093 208.972 51.976 208.379 54.5273 207.133 56.782 205.946 59.0367 204.285 60.7573 202.208 62.0033 200.131 63.3087 197.699 63.902 194.91 63.902 192.477 63.902 190.401 63.4867 188.621 62.5967 186.841 61.766 185.357 60.6387 184.23 59.2147 183.103 57.7907 182.213 56.248 181.679 54.468 181.145 52.688 180.789 50.9673 180.789 49.0687 180.789 46.3393 181.382 43.966 182.569 41.7113 183.696 39.4567 185.357 37.736 187.493 36.3713 189.689 35.0067 192.181 34.354 195.088 34.354ZM231.875 48.6533C231.875 46.992 231.519 45.568 230.925 44.3813 230.332 43.254 229.501 42.4233 228.433 41.8893 227.365 41.3553 226.119 41.0587 224.873 41.0587 223.924 41.0587 223.271 41.118 222.797 41.1773 222.322 41.2367 221.907 41.3553 221.491 41.5333L221.491 57.0193C221.847 57.0787 222.144 57.138 222.559 57.1973 222.915 57.2567 223.331 57.2567 223.627 57.2567 225.111 57.2567 226.475 56.9007 227.662 56.3073 228.849 55.714 229.917 54.7647 230.688 53.5187 231.459 52.2133 231.875 50.6113 231.875 48.6533ZM213.956 22.784 220.898 22.784C221.313 22.784 221.432 22.9027 221.432 23.2587L221.432 34.9473C222.203 34.7693 222.975 34.5913 223.805 34.4727 224.636 34.354 225.407 34.2947 226.238 34.2947 229.086 34.2947 231.519 34.888 233.536 36.134 235.553 37.3207 237.096 38.982 238.283 40.9993 239.41 43.0167 239.944 45.3307 239.944 47.882 239.944 50.4927 239.469 52.866 238.52 54.824 237.571 56.8413 236.265 58.4433 234.663 59.7487 233.061 61.054 231.222 62.0627 229.145 62.7153 227.128 63.368 225.051 63.724 222.856 63.724 221.313 63.724 219.83 63.6053 218.347 63.368 216.863 63.19 215.38 62.834 213.956 62.3593 213.778 62.3 213.6 62.0627 213.6 61.8253L213.6 23.1993C213.6 22.9027 213.719 22.784 213.956 22.784ZM251.158 45.6273 260.711 45.6273C261.126 45.6273 261.482 45.568 261.541 45.568L261.541 45.212C261.541 44.856 261.482 44.4407 261.363 43.9067 261.245 43.432 260.948 42.898 260.533 42.4233 260.117 41.8893 259.643 41.474 259.049 41.118 258.456 40.762 257.625 40.6433 256.676 40.6433 255.549 40.6433 254.599 40.94 253.769 41.4147 252.938 41.9487 252.404 42.542 251.989 43.3133 251.573 44.0253 251.336 44.7967 251.158 45.6273ZM262.372 51.1453 251.158 51.1453C251.277 52.2133 251.633 53.222 252.226 54.112 252.819 55.002 253.709 55.714 254.837 56.248 255.964 56.782 257.566 57.0787 259.346 57.0787 260.651 57.0787 261.838 56.96 262.965 56.7227 264.093 56.5447 265.279 56.1887 266.347 55.714 266.525 55.5953 266.703 55.6547 266.703 56.0107L266.703 61.41C266.703 61.588 266.703 61.766 266.644 61.8253 266.585 61.8847 266.525 62.0033 266.288 62.122 265.22 62.656 263.915 63.0713 262.55 63.3087 261.185 63.6053 259.524 63.724 257.566 63.724 254.837 63.724 252.641 63.3087 250.743 62.4187 248.903 61.588 247.42 60.4607 246.293 59.096 245.165 57.672 244.335 56.1293 243.801 54.4087 243.267 52.7473 243.029 50.9673 243.029 49.1873 243.029 47.2293 243.385 45.3307 243.979 43.4913 244.572 41.652 245.462 40.05 246.589 38.6853 247.717 37.2613 249.141 36.1933 250.921 35.3627 252.582 34.532 254.659 34.176 256.854 34.176 258.99 34.176 260.829 34.532 262.372 35.244 263.915 36.0153 265.161 36.9053 266.169 38.2107 267.119 39.3973 267.831 40.762 268.246 42.186 268.661 43.61 268.899 45.0933 268.899 46.458 268.899 47.348 268.899 48.06 268.839 48.8313 268.78 49.6027 268.721 49.9587 268.661 50.3147 268.602 50.6113 268.483 50.73 268.187 50.7893 267.89 50.8487 267.534 50.8487 267 50.908 266.466 50.9673 265.813 50.9673 264.983 50.9673 264.271 51.1453 263.381 51.1453 262.372 51.1453ZM295.005 63.8427C292.929 63.8427 291.03 63.6647 289.25 63.3087 287.47 62.9527 286.105 62.4187 284.859 61.8253 284.563 61.7067 284.444 61.3507 284.444 60.876L284.444 54.0527C284.444 53.934 284.503 53.756 284.563 53.6967 284.622 53.6373 284.741 53.6373 284.919 53.6967 286.521 54.7053 288.241 55.4767 289.962 55.9513 291.742 56.426 293.463 56.7227 295.243 56.7227 297.379 56.7227 298.981 56.3667 299.93 55.714 300.879 55.0613 301.354 54.2307 301.354 53.222 301.354 52.6287 301.235 52.0947 300.879 51.5607 300.523 51.0267 299.989 50.552 299.277 50.018 298.506 49.484 297.497 49.0093 296.192 48.4753L293.344 47.2887C291.03 46.28 289.25 45.2713 287.885 44.144 286.58 43.0167 285.631 41.83 285.097 40.5247 284.563 39.2193 284.325 37.7953 284.325 36.312 284.325 34.2947 284.859 32.396 285.868 30.7347 286.877 29.0733 288.419 27.768 290.437 26.7593 292.454 25.7507 294.946 25.276 297.972 25.276 299.752 25.276 301.413 25.3947 303.015 25.632 304.617 25.81 305.863 26.2253 306.872 26.7593 307.05 26.878 307.228 27.1747 307.228 27.5307L307.228 33.9387C307.228 34.0573 307.169 34.1167 307.109 34.2947 307.05 34.354 306.931 34.354 306.753 34.2947 305.626 33.642 304.261 33.1673 302.778 32.8707 301.235 32.5147 299.693 32.396 297.972 32.396 296.904 32.396 296.014 32.4553 295.183 32.6927 294.412 32.8707 293.819 33.108 293.344 33.464 292.869 33.82 292.513 34.1167 292.335 34.532 292.157 34.9473 291.979 35.422 291.979 35.8373 291.979 36.4307 292.098 36.9647 292.454 37.4393 292.81 37.914 293.344 38.3887 294.115 38.9227 294.946 39.3973 296.014 39.9313 297.438 40.5247L299.515 41.4147C302.066 42.4233 304.024 43.5507 305.389 44.7373 306.813 45.8647 307.762 47.17 308.355 48.5347 308.889 49.8993 309.245 51.3233 309.245 52.8067 309.245 55.1207 308.652 57.0787 307.465 58.74 306.279 60.4013 304.617 61.7067 302.541 62.656 300.523 63.368 297.972 63.8427 295.005 63.8427ZM327.995 57.5533 327.995 62.3C327.995 62.7153 327.876 62.9527 327.579 63.0713 326.749 63.368 325.977 63.546 325.206 63.6647 324.375 63.7833 323.545 63.8427 322.477 63.8427 319.985 63.8427 318.027 63.19 316.662 61.8847 315.297 60.5793 314.645 58.5027 314.645 55.6547L314.645 41.474 311.203 41.474C310.847 41.4147 310.729 41.296 310.729 40.94L310.729 35.3627C310.729 35.0067 310.907 34.8287 311.263 34.8287L314.704 34.8287C314.763 34.176 314.763 33.4047 314.823 32.5147 314.882 31.6247 314.882 30.7347 315.001 29.9633 315.06 29.1327 315.179 28.4207 315.297 27.946 315.357 27.8273 315.357 27.6493 315.475 27.59 315.535 27.5307 315.653 27.4713 315.831 27.412L322.536 26.522C322.655 26.4627 322.833 26.4627 322.892 26.522 322.951 26.5813 323.011 26.6407 323.011 26.878 322.951 27.768 322.892 28.9547 322.833 30.438 322.773 31.9213 322.714 33.4047 322.714 34.8287L328.054 34.8287C328.41 34.8287 328.529 34.9473 328.529 35.3033L328.529 41.0587C328.529 41.2367 328.41 41.4147 328.113 41.474L322.773 41.474 322.773 53.6967C322.773 55.002 322.951 55.8327 323.426 56.4853 323.841 57.0787 324.613 57.3753 325.859 57.3753 326.215 57.3753 326.511 57.3753 326.808 57.316 327.105 57.2567 327.401 57.2567 327.757 57.138 327.876 57.138 327.935 57.138 328.054 57.1973 328.113 57.138 327.995 57.3753 327.995 57.5533ZM344.193 40.94C343.125 40.94 342.116 41.296 341.226 41.8893 340.336 42.4827 339.683 43.432 339.149 44.678 338.615 45.8647 338.378 47.2887 338.378 49.0687 338.378 50.73 338.675 52.154 339.149 53.4 339.624 54.646 340.336 55.536 341.285 56.248 342.235 56.96 343.303 57.2567 344.608 57.2567 345.676 57.2567 346.685 56.9007 347.575 56.3073 348.465 55.714 349.177 54.7647 349.651 53.5187 350.126 52.332 350.423 50.7893 350.423 49.0687 350.423 47.526 350.245 46.1613 349.829 44.9747 349.414 43.788 348.761 42.72 347.871 42.008 346.922 41.296 345.676 40.94 344.193 40.94ZM344.549 34.354C346.863 34.354 348.88 34.7693 350.601 35.5407 352.262 36.3713 353.745 37.4393 354.932 38.804 356.059 40.1687 357.009 41.7113 357.543 43.4913 358.136 45.2713 358.433 47.0513 358.433 49.0093 358.433 51.976 357.839 54.5273 356.593 56.782 355.407 59.0367 353.745 60.7573 351.669 62.0033 349.592 63.3087 347.159 63.902 344.371 63.902 341.938 63.902 339.861 63.4867 338.081 62.5967 336.301 61.766 334.818 60.6387 333.691 59.2147 332.563 57.7907 331.673 56.248 331.139 54.468 330.605 52.688 330.249 50.9673 330.249 49.0687 330.249 46.3393 330.843 43.966 332.029 41.7113 333.216 39.4567 334.818 37.736 336.954 36.3713 339.149 35.0067 341.641 34.354 344.549 34.354ZM383.353 56.4853 383.353 62.4187C383.353 62.5967 383.293 62.834 383.056 62.8933 382.107 63.3087 381.157 63.4867 380.03 63.6647 378.962 63.7833 377.775 63.8427 376.648 63.8427 374.334 63.8427 372.257 63.4867 370.418 62.7747 368.579 62.0033 366.977 60.9947 365.671 59.6893 364.366 58.384 363.357 56.782 362.645 55.002 361.993 53.222 361.577 51.264 361.577 49.1873 361.577 46.3393 362.23 43.788 363.595 41.5333 364.959 39.2787 366.739 37.558 369.172 36.1933 371.605 34.888 374.453 34.2353 377.657 34.2353 379.081 34.2353 380.149 34.2947 380.979 34.4133 381.81 34.532 382.463 34.71 382.878 34.888 383.056 34.9473 383.234 35.1847 383.234 35.4813L383.175 41.3553C383.175 41.7113 383.056 41.83 382.7 41.7707 382.166 41.5927 381.513 41.3553 380.683 41.2367 379.852 41.118 378.903 41.0587 377.894 41.0587 376.292 41.0587 374.868 41.3553 373.622 41.9487 372.435 42.4827 371.367 43.3727 370.655 44.5 369.884 45.6273 369.587 47.0513 369.587 48.8313 369.587 50.7893 370.003 52.332 370.893 53.5187 371.723 54.646 372.791 55.4767 374.156 56.0107 375.461 56.4853 376.767 56.782 378.072 56.782 379.081 56.782 380.03 56.7227 380.861 56.6633 381.691 56.604 382.344 56.4853 382.819 56.3073 383.175 56.1293 383.353 56.1887 383.353 56.4853ZM395.872 23.318 395.872 62.656C395.872 63.0713 395.694 63.19 395.338 63.19L388.455 63.19C388.04 63.19 387.921 63.012 387.921 62.656L387.921 23.2587C387.921 23.14 387.981 23.0807 388.04 22.9027 388.099 22.8433 388.218 22.784 388.515 22.784L395.338 22.784C395.635 22.784 395.872 22.962 395.872 23.318ZM406.137 34.888 413.494 34.888C413.672 34.888 413.85 34.9473 413.909 35.066 413.969 35.1847 413.909 35.3627 413.85 35.4813 413.435 35.956 412.901 36.5493 412.248 37.3207 411.595 38.1513 410.765 38.9227 409.875 39.9313 408.985 40.8807 408.095 41.8893 407.264 42.8387 406.374 43.788 405.603 44.7373 404.831 45.568 404.06 46.3987 403.467 47.0513 403.051 47.526 402.992 47.5853 402.992 47.5853 402.992 47.6447 402.992 47.704 402.992 47.704 403.051 47.7633 403.882 48.772 404.831 49.8993 405.84 51.264 406.849 52.5693 407.917 53.8747 409.103 55.2393 410.29 56.604 411.358 57.9687 412.426 59.2147 413.494 60.52 414.443 61.7067 415.333 62.7153 415.452 62.834 415.452 62.8933 415.393 63.0713 415.333 63.19 415.215 63.2493 415.037 63.2493L406.018 63.2493C405.84 63.2493 405.662 63.2493 405.603 63.19 405.543 63.1307 405.425 63.0713 405.247 62.834 404.772 62.1813 404.06 61.2913 403.111 60.0453 402.161 58.8587 401.153 57.494 400.025 56.07 398.957 54.646 397.949 53.2813 396.999 52.0353 396.05 50.73 395.338 49.7807 394.745 49.128 394.626 48.95 394.448 48.7127 394.448 48.594 394.389 48.4753 394.507 48.238 394.745 48.06 395.219 47.4667 395.872 46.6953 396.643 45.746 397.474 44.7967 398.245 43.8473 399.135 42.7793 400.025 41.7113 400.915 40.7027 401.687 39.694 402.517 38.6853 403.229 37.7953 403.941 36.9647 404.653 36.134 405.009 35.6 405.306 35.3033 405.425 35.1253 405.603 34.9473 405.662 34.9473 405.781 34.9473 405.899 34.888 406.137 34.888Z"
       fill="#0C131F"
       transform="matrix(1.00161 0 0 1 170 168.148)"
       id="path11"
       style="fill:#ffffff" /></g></svg>
