<svg width="416" height="117" xmlns="http://www.w3.org/2000/svg" xmlns:xlink="http://www.w3.org/1999/xlink" xml:space="preserve" overflow="hidden"><g transform="translate(-170 -154)"><path d="M370.021 112.028 350.316 59.1158 350.316 112.028 338.274 112.028 338.274 4.74386 350.316 4.74386 350.316 56.9263 371.116 4.74386 383.888 4.74386 362.358 57.6561 383.523 112.393 370.021 112.393ZM327.326 70.793 327.326 93.0526C327.326 106.554 320.758 113.123 307.621 113.123L303.607 113.123C290.47 113.123 283.902 106.554 283.902 93.0526L283.902 23.7193C283.902 10.2175 290.47 3.64912 303.607 3.64912L307.621 3.64912C320.393 3.64912 326.961 10.2175 326.961 23.3544L326.961 42.6947 315.284 42.6947 315.284 22.9895C315.284 17.5158 312.73 14.9614 307.256 14.9614L304.337 14.9614C298.863 14.9614 296.309 17.5158 296.309 22.9895L296.309 93.7825C296.309 99.2561 298.863 101.811 304.337 101.811L307.621 101.811C313.095 101.811 315.649 99.2561 315.649 93.7825L315.649 70.793ZM255.074 14.9614 251.425 14.9614C245.951 14.9614 243.396 17.5158 243.396 22.9895L243.396 93.7825C243.396 99.2561 245.951 101.811 251.425 101.811L255.074 101.811C260.547 101.811 263.102 99.2561 263.102 93.7825L263.102 22.9895C263.102 17.5158 260.547 14.9614 255.074 14.9614M255.439 113.123 251.06 113.123C237.923 113.123 231.354 106.554 231.354 93.0526L231.354 23.7193C231.354 10.2175 237.923 3.64912 251.06 3.64912L255.439 3.64912C268.575 3.64912 275.144 10.2175 275.144 23.7193L275.144 93.0526C275.144 106.554 268.575 113.123 255.439 113.123M198.147 112.028 198.147 16.0561 182.456 16.0561 182.456 4.74386 226.246 4.74386 226.246 16.0561 210.554 16.0561 210.554 112.028ZM177.712 77.3614 177.712 93.0526C177.712 106.554 171.144 113.123 158.007 113.123L154.723 113.123C141.951 113.123 135.382 106.554 135.382 93.4175L135.382 70.793 147.06 70.793 147.06 93.7825C147.06 99.2561 149.614 101.811 155.088 101.811L157.642 101.811C163.116 101.811 165.67 99.2561 165.67 93.7825L165.67 77.7263C165.67 72.2526 163.846 70.0632 160.561 67.5088L145.965 56.5614C138.302 50.7228 135.747 45.2491 135.747 36.4912L135.747 23.7193C135.747 10.2175 142.316 3.64912 155.453 3.64912L158.372 3.64912C171.144 3.64912 177.712 10.2175 177.712 23.3544L177.712 42.6947 166.035 42.6947 166.035 22.9895C166.035 17.5158 163.481 14.9614 158.007 14.9614L155.818 14.9614C150.344 14.9614 147.789 17.5158 147.789 22.9895L147.789 36.4912C147.789 41.9649 149.614 44.1544 153.263 46.7088L167.86 57.2912C175.158 63.1298 177.712 68.2386 177.712 77.3614M102.905 66.414 102.905 55.1018 124.435 55.1018 124.435 93.0526C124.435 106.554 117.867 113.123 104.73 113.123L100.351 113.123C87.214 113.123 80.6456 106.554 80.6456 93.0526L80.6456 23.7193C80.6456 10.2175 87.214 3.64912 100.351 3.64912L104.73 3.64912C117.502 3.64912 124.07 10.2175 124.07 23.3544L124.07 37.9509 112.393 37.9509 112.393 22.9895C112.393 17.5158 109.839 14.9614 104.365 14.9614L100.716 14.9614C95.2421 14.9614 92.6877 17.5158 92.6877 22.9895L92.6877 93.7825C92.6877 99.2561 95.2421 101.811 100.716 101.811L104.73 101.811C110.204 101.811 112.758 99.2561 112.758 93.7825L112.758 66.414ZM69.3333 112.028 57.2912 112.028 57.2912 4.74386 69.3333 4.74386ZM15.6912 101.081 25.9088 101.081C31.3825 101.081 33.9368 98.5263 33.9368 93.0526L33.9368 71.8877C33.9368 65.6842 31.0175 62.7649 25.1789 62.7649L16.0561 62.7649 16.0561 101.081ZM25.1789 15.6912 15.3263 15.6912 15.3263 51.8175 24.0842 51.8175C30.2877 51.8175 32.8421 48.8982 32.8421 42.6947L32.8421 23.7193C33.207 18.2456 30.6526 15.6912 25.1789 15.6912M45.614 74.0772 45.614 92.3228C45.614 105.825 39.0456 112.393 25.9088 112.393L3.64912 112.393 3.64912 4.74386 25.5439 4.74386C38.6807 4.74386 45.2491 11.3123 45.2491 24.814L45.2491 40.5053C45.2491 49.993 41.9649 55.1018 36.1263 57.2912 42.3298 59.8456 45.614 64.5895 45.614 74.0772" fill="#FFFFFF" transform="matrix(1 0 0 1.00195 170.547 154)"/><path d="M442.274 66.0491 438.625 66.0491 438.625 64.2246 447.747 64.2246 447.747 66.0491 444.098 66.0491 444.098 75.5368 441.909 75.5368 441.909 66.0491Z" fill="#FFFFFF" transform="matrix(1 0 0 1.00195 120.189 94.4031)"/><path d="M449.937 64.2246 452.126 64.2246 455.775 69.6982 459.425 64.2246 461.614 64.2246 461.614 75.5368 459.425 75.5368 459.425 67.1439 455.775 72.6175 452.126 67.1439 452.126 75.1719 450.302 75.1719 450.302 64.2246Z" fill="#FFFFFF" transform="matrix(1 0 0 1.00195 120.189 94.4031)"/></g></svg>