<svg width="434" height="109" xmlns="http://www.w3.org/2000/svg" xmlns:xlink="http://www.w3.org/1999/xlink" xml:space="preserve" overflow="hidden"><defs><clipPath id="clip0"><rect x="161" y="158" width="434" height="109"/></clipPath></defs><g clip-path="url(#clip0)" transform="translate(-161 -158)"><path d="M134.703 0C104.742 9.63675e-15 80.4528 24.2885 80.4528 54.25 80.4528 84.2112 104.742 108.5 134.703 108.5 164.664 108.5 188.953 84.2112 188.953 54.25L188.953 54.25C188.687 24.399 164.554 0.265096 134.703 5.78202e-14ZM134.703 97.1075C111.184 97.2567 91.9961 78.3115 91.8469 54.7925 91.6977 31.2732 110.643 12.086 134.162 11.9367 157.68 11.7874 176.867 30.7314 177.018 54.25L177.018 54.25C177.019 77.7093 158.16 96.8108 134.703 97.1075ZM251.286 0C221.325 9.63675e-15 197.036 24.2885 197.036 54.25 197.036 84.2112 221.325 108.5 251.286 108.5 281.247 108.5 305.536 84.2112 305.536 54.25L305.536 54.25C305.536 24.2885 281.247-9.63675e-15 251.286-9.63675e-15ZM251.286 97.1075C227.767 97.2567 208.579 78.3115 208.43 54.7925 208.281 31.2732 227.226 12.086 250.745 11.9367 274.264 11.7874 293.451 30.7314 293.601 54.25L293.601 54.25C293.991 77.527 275.437 96.712 252.161 97.1021 251.869 97.107 251.577 97.1086 251.286 97.1075ZM41.3928 32.55C31.1654 30.8938 20.7156 33.6542 12.6403 40.145L12.6403 11.3925 61.4653 11.3925C63.0928 11.3925 64.1777 10.85 64.1777 5.9675 64.1777 1.085 62.0078 1.085 60.9227 1.085L7.21525 1.085C4.51872 1.085 2.33275 3.27097 2.33275 5.9675L2.33275 53.7075C2.33275 56.42 3.96025 56.9625 6.67275 57.505 8.35884 58.2846 10.358 57.8403 11.5553 56.42L11.5553 56.42C17.7266 47.6689 27.9923 42.7414 38.6803 43.4 51.2556 44.9699 61.2407 54.7328 63.0928 67.27 64.8157 82.2294 54.1654 95.7849 39.2228 97.65L35.9678 97.65C24.5971 97.4894 14.4827 90.3881 10.4703 79.7475 9.92775 78.12 8.84275 77.035 4.50275 78.6625 0.16275 80.29-0.37975 81.375 0.16275 83.0025 7.51108 102.632 29.2231 112.764 48.9878 105.788 68.617 98.4393 78.7493 76.7274 71.7728 56.9625 66.9125 43.8528 55.2411 34.4744 41.3928 32.55ZM342.426 0.5425C327.554 2.25488 316.343 14.8675 316.386 29.8375L316.386 78.12C316.386 80.8325 318.556 81.375 321.811 81.375 325.066 81.375 327.236 80.8325 327.236 78.12L327.236 29.8375C327.039 20.5874 333.803 12.6571 342.969 11.3925 347.895 10.895 352.808 12.4669 356.531 15.7325 360.307 19.0071 362.483 23.7544 362.499 28.7525 362.138 32.4572 360.83 36.0067 358.701 39.06 355.215 43.9008 349.458 46.574 343.511 46.1125L343.511 46.1125C341.341 46.1125 339.714 46.1125 339.171 50.995 339.171 54.25 339.171 55.8775 341.884 56.42 347.337 56.9766 352.831 55.8401 357.616 53.165 366.365 48.7068 372.279 40.141 373.349 30.38 374.641 14.9139 363.151 1.3285 347.684 0.0362571 347.523 0.0227751 347.362 0.0106878 347.2-3.1035e-06 345.648 0.435708 344.036 0.618884 342.426 0.542497ZM413.494 28.7525 433.023 9.2225C433.566 8.68 435.194 7.0525 431.939 3.255 431.033 2.03083 429.655 1.2434 428.141 1.085L428.141 1.085C427.291 1.10127 426.494 1.49988 425.971 2.17L406.441 21.7 386.911 1.6275C385.284 -9.03442e-16 383.656 0.5425 380.944 2.7125 378.231 4.8825 378.231 7.0525 379.858 8.68L399.389 28.21 379.75 48.2825 379.75 48.2825C379.179 48.8807 378.801 49.6367 378.665 50.4525 378.694 52.0054 379.512 53.4367 380.835 54.25 381.896 55.2835 383.203 56.0305 384.633 56.42L384.633 56.42C385.615 56.2979 386.549 55.9242 387.345 55.335L406.875 35.805 426.405 55.335C426.928 56.005 427.725 56.4037 428.575 56.42L428.575 56.42C430.089 56.2616 431.467 55.4744 432.372 54.25 434 52.08 434.543 49.91 432.915 48.825Z" fill="#FFFFFF" transform="matrix(1 0 0 1.00461 161 158)"/></g></svg>