<svg width="416" height="81" xmlns="http://www.w3.org/2000/svg" xmlns:xlink="http://www.w3.org/1999/xlink" xml:space="preserve" overflow="hidden"><defs><clipPath id="clip0"><rect x="170" y="172" width="416" height="81"/></clipPath></defs><g clip-path="url(#clip0)" transform="translate(-170 -172)"><path d="M369.766 27.8586 382.738 27.8586C398.55 27.8586 412.788 32.788 412.681 51.7316 412.681 69.7359 396.654 76.0207 383.158 76.0207 366.071 76.0207 353.045 69.8477 352.992 52.4607L352.992 50.0542 369.229 50.0542 369.229 52.4607 369.238 52.4607C369.238 59.0675 376.824 61.5769 382.939 61.5769 386.947 61.5769 396.435 60.1142 396.435 51.7361 396.537 43.5682 387.685 41.8952 382.729 41.8952L354.459 41.8952 354.459 1.90555 408.557 1.90555 408.557 16.5595 369.761 16.5595 369.761 27.8586ZM298.106 75.0723 267.832 75.0723 267.832 1.80267 298.102 1.80267C323.509 1.80267 334.795 18.7468 334.795 37.9142 334.795 57.0725 323.934 75.0723 298.102 75.0723ZM298.106 16.564 284.07 16.564 284.07 60.0069 298.102 60.0069C314.129 60.0069 318.562 48.2739 318.562 37.7084 318.562 27.1339 313.499 16.5595 298.102 16.5595ZM193.972 36.1652 193.972 75.0723 177.538 75.0723 177.538 0.805161 179.846 0.402581 224.533 40.4638 224.533 1.80267 240.98 1.80267 240.98 76.3114 239.267 76.6066 193.977 36.1696ZM117.768 76.8705C94.1502 76.8705 77.8994 62.3016 77.8994 38.4375 77.8994 14.5645 94.1457 0.0134194 117.768 0.0134194 141.386 0.0134194 157.633 14.5645 157.633 38.4375 157.633 62.3016 141.395 76.8616 117.768 76.8616ZM117.768 14.6674C103.736 14.6674 94.0294 25.1345 94.0294 38.433 94.0294 52.1476 103.736 62.0958 117.773 62.0958 132.114 62.0958 141.503 52.0403 141.503 38.433 141.503 25.0271 132.109 14.6629 117.773 14.6629ZM34.7561 54.3484 24.6692 54.3484 24.6692 39.3858 34.7561 39.3858C42.6735 39.3858 46.5652 34.2507 46.5652 28.3909 46.5652 22.5311 42.5617 17.2886 34.7561 17.2886L16.4163 17.2886 16.4163 75.0723-0.0447312 75.0723-0.0447312 1.80267 34.7561 1.80267C53.6327 1.80267 63.0039 13.9382 63.0039 28.0778 63.0039 42.7272 53.5119 54.1426 34.7517 54.3484Z" fill="#FFFFFF" transform="matrix(1 0 0 1.00601 170 172)"/></g></svg>