<?xml version="1.0" encoding="UTF-8" standalone="no"?>
<svg
   width="1000px"
   height="1000px"
   viewBox="0 0 1000 1000"
   version="1.1"
   id="svg16"
   sodipodi:docname="LogTelegram.svg"
   inkscape:version="1.2.2 (732a01da63, 2022-12-09)"
   xmlns:inkscape="http://www.inkscape.org/namespaces/inkscape"
   xmlns:sodipodi="http://sodipodi.sourceforge.net/DTD/sodipodi-0.dtd"
   xmlns="http://www.w3.org/2000/svg"
   xmlns:svg="http://www.w3.org/2000/svg">
  <sodipodi:namedview
     id="namedview18"
     pagecolor="#505050"
     bordercolor="#ffffff"
     borderopacity="1"
     inkscape:showpageshadow="0"
     inkscape:pageopacity="0"
     inkscape:pagecheckerboard="1"
     inkscape:deskcolor="#505050"
     showgrid="false"
     inkscape:zoom="0.804"
     inkscape:cx="422.88557"
     inkscape:cy="500.62189"
     inkscape:window-width="1920"
     inkscape:window-height="991"
     inkscape:window-x="-9"
     inkscape:window-y="-9"
     inkscape:window-maximized="1"
     inkscape:current-layer="svg16" />
  <!-- Generator: Sketch 53.2 (72643) - https://sketchapp.com -->
  <title
     id="title2">Artboard</title>
  <desc
     id="desc4">Created with Sketch.</desc>
  <defs
     id="defs11">
    <inkscape:path-effect
       effect="powerclip"
       id="path-effect358"
       is_visible="true"
       lpeversion="1"
       inverse="true"
       flatten="false"
       hide_clip="false"
       message="Usar a regra de preenchimento par ou ímpar na caixa de diálogo &lt;b&gt;preenchimento e contorno&lt;/b&gt; se nenhum resultado nivelar após converter o clipe em caminhos." />
    <linearGradient
       x1="50%"
       y1="0%"
       x2="50%"
       y2="99.2583404%"
       id="linearGradient-1">
      <stop
         stop-color="#2AABEE"
         offset="0%"
         id="stop6" />
      <stop
         stop-color="#229ED9"
         offset="100%"
         id="stop8" />
    </linearGradient>
    <filter
       id="mask-powermask-path-effect348_inverse"
       inkscape:label="filtermask-powermask-path-effect348"
       style="color-interpolation-filters:sRGB"
       height="100"
       width="100"
       x="-50"
       y="-50">
      <feColorMatrix
         id="mask-powermask-path-effect348_primitive1"
         values="1"
         type="saturate"
         result="fbSourceGraphic" />
      <feColorMatrix
         id="mask-powermask-path-effect348_primitive2"
         values="-1 0 0 0 1 0 -1 0 0 1 0 0 -1 0 1 0 0 0 1 0 "
         in="fbSourceGraphic" />
    </filter>
    <clipPath
       clipPathUnits="userSpaceOnUse"
       id="clipPath354">
      <path
         d="m 226.32842,494.72207 c 145.76015,-63.50539 242.95642,-105.37202 291.5888,-125.59991 138.85531,-57.75473 167.70826,-67.78735 186.51421,-68.11863 4.13619,-0.0729 13.38441,0.95221 19.37502,5.81318 5.05835,4.1045 6.4501,9.6491 7.1161,13.54062 0.666,3.89152 1.49533,12.7565 0.83608,19.68334 -7.52462,79.06182 -40.08353,270.924 -56.64765,359.4746 -7.0089,37.46907 -20.80964,50.03226 -34.17036,51.26174 -29.03594,2.67193 -51.0845,-19.18898 -79.20723,-37.62377 -44.0065,-28.84682 -68.86738,-46.80406 -111.58332,-74.95323 -49.36565,-32.53123 -17.36395,-50.41096 10.76939,-79.63145 7.36263,-7.64714 135.29562,-124.01208 137.77177,-134.5682 0.30968,-1.32023 0.59708,-6.24138 -2.32649,-8.83993 -2.92357,-2.59855 -7.23851,-1.70995 -10.35229,-1.00323 -4.41369,1.00174 -74.71466,47.46807 -210.9029,139.39899 -19.95469,13.70243 -38.02904,20.37872 -54.22303,20.02886 -17.85257,-0.3857 -52.19377,-10.09412 -77.72291,-18.39264 -31.31254,-10.17847 -56.19913,-15.55991 -54.03206,-32.8461 1.12874,-9.00372 13.52769,-18.2118 37.19687,-27.62424 z"
         id="path356"
         fill="#ffffff"
         style="display:none" />
      <path
         id="lpe_path-effect358"
         class="powerclip"
         d="M -5,-5 H 1005 V 1005 H -5 Z m 231.32842,499.72207 c -23.66918,9.41244 -36.06813,18.62052 -37.19687,27.62424 -2.16707,17.28619 22.71952,22.66763 54.03206,32.8461 25.52914,8.29852 59.87034,18.00694 77.72291,18.39264 16.19399,0.34986 34.26834,-6.32643 54.22303,-20.02886 136.18824,-91.93092 206.48921,-138.39725 210.9029,-139.39899 3.11378,-0.70672 7.42872,-1.59532 10.35229,1.00323 2.92357,2.59855 2.63617,7.5197 2.32649,8.83993 -2.47615,10.55612 -130.40914,126.92106 -137.77177,134.5682 -28.13334,29.22049 -60.13504,47.10022 -10.76939,79.63145 42.71594,28.14917 67.57682,46.10641 111.58332,74.95323 28.12273,18.43479 50.17129,40.2957 79.20723,37.62377 13.36072,-1.22948 27.16146,-13.79267 34.17036,-51.26174 16.56412,-88.5506 49.12303,-280.41278 56.64765,-359.4746 0.65925,-6.92684 -0.17008,-15.79182 -0.83608,-19.68334 -0.666,-3.89152 -2.05775,-9.43612 -7.1161,-13.54062 -5.99061,-4.86097 -15.23883,-5.88608 -19.37502,-5.81318 -18.80595,0.33128 -47.6589,10.3639 -186.51421,68.11863 -48.63238,20.22789 -145.82865,62.09452 -291.5888,125.59991 z" />
    </clipPath>
  </defs>
  <path
     id="Oval"
     fill="url(#linearGradient-1)"
     clip-path="url(#clipPath354)"
     inkscape:path-effect="#path-effect358"
     sodipodi:type="arc"
     sodipodi:cx="500"
     sodipodi:cy="500"
     sodipodi:rx="500"
     sodipodi:ry="500"
     d="M 1000,500 A 500,500 0 0 1 500,1000 500,500 0 0 1 0,500 500,500 0 0 1 500,0 500,500 0 0 1 1000,500 Z"
     style="fill:#ffffff" />
</svg>
