<svg width="218" height="213" xmlns="http://www.w3.org/2000/svg" xmlns:xlink="http://www.w3.org/1999/xlink" xml:space="preserve" overflow="hidden"><defs><clipPath id="clip0"><rect x="269" y="106" width="218" height="213"/></clipPath></defs><g clip-path="url(#clip0)" transform="translate(-269 -106)"><path d="M108.395 0C48.4553 0 0 48.8125 0 109.2 0 157.471 31.047 198.332 74.1173 212.794 79.5023 213.881 81.4747 210.444 81.4747 207.553 81.4747 205.021 81.2972 196.344 81.2972 187.302 51.1444 193.812 44.8653 174.285 44.8653 174.285 40.0196 161.629 32.8397 158.377 32.8397 158.377 22.9707 151.687 33.5586 151.687 33.5586 151.687 44.5059 152.41 50.2503 162.896 50.2503 162.896 59.9395 179.528 75.5529 174.829 81.8342 171.935 82.7305 164.884 85.6038 160.003 88.6546 157.292 64.6056 154.76 39.3029 145.359 39.3029 103.414 39.3029 91.4813 43.6073 81.7188 50.4277 74.1262 49.3517 71.4149 45.582 60.2036 51.5061 45.1982 51.5061 45.1982 60.6584 42.3049 81.295 56.4073 90.1303 54.017 99.242 52.8009 108.395 52.7907 117.547 52.7907 126.877 54.0576 135.492 56.4073 156.131 42.3049 165.284 45.1982 165.284 45.1982 171.208 60.2036 167.436 71.4149 166.36 74.1262 173.36 81.7188 177.487 91.4813 177.487 103.414 177.487 145.359 152.184 154.578 127.955 157.292 131.905 160.726 135.313 167.234 135.313 177.54 135.313 192.184 135.135 203.936 135.135 207.551 135.135 210.444 137.11 213.881 142.493 212.796 185.563 198.33 216.61 157.471 216.61 109.2 216.787 48.8125 168.155 0 108.395 0Z" fill="#FFFFFF" fill-rule="evenodd" transform="matrix(1.00259 0 0 1 269 106)"/></g></svg>