<svg width="416" height="61" xmlns="http://www.w3.org/2000/svg" xmlns:xlink="http://www.w3.org/1999/xlink" xml:space="preserve" overflow="hidden"><g transform="translate(-170 -182)"><path d="M245.032 34.6762 241.724 34.0896C238.44 33.4796 235.624 32.6819 235.624 29.28 235.624 26.3473 238.604 24.9865 242.311 24.9865 247.824 24.9865 252.681 27.5673 253.22 27.8488L256.27 19.6373C255.097 19.0273 250.17 16.3058 242.405 16.3058 235.296 16.3058 226.615 20.1535 226.615 29.6788 226.615 38.2423 232.551 40.9873 238.275 42.0196L242.264 42.7235C246.112 43.4038 248.223 44.8819 248.223 47.4627 248.223 50.7473 245.22 52.2958 240.668 52.2958 233.395 52.2958 229.125 50.0669 227.882 49.5273L224.55 57.5746C225.583 58.1142 230.557 61 240.246 61 249.631 61 257.185 56.2138 257.185 47.2985 257.115 38.9931 251.695 35.8492 245.032 34.6762M273.773 1.36077 264.857 6.42846 264.857 17.1269 260.165 17.1269 260.165 25.8781 264.857 25.8781 264.857 44.8115C264.857 52.8823 268.095 60.1319 279.497 60.1319L283.063 60.1319 283.063 51.3808 281.726 51.3808C276.095 51.3808 273.749 48.0492 273.749 43.5446L273.749 25.8781 283.978 25.8781 283.978 17.1269 273.773 17.1269 273.773 1.36077M343.313 25.2212C346.785 25.2212 350.351 26.84 351.407 30.7581L359.478 27.6142C357.225 19.4027 349.788 16.3058 343.242 16.3058 331.512 16.3058 326.772 23.8135 326.772 31.0865L326.772 46.2192C326.772 53.4923 331.512 61 343.242 61 349.812 61 357.225 57.9265 359.478 49.6915L351.407 46.5477C350.328 50.4658 346.785 52.1081 343.313 52.1081 337.26 52.1081 335.664 48.7062 335.664 44.835L335.664 32.4942C335.664 28.6231 337.26 25.2212 343.313 25.2212M381.367 36.4592 398.025 17.1504 387.068 17.1504 372.757 33.9958 372.757 1.36077 363.842 1.36077 363.842 60.1554 372.757 60.1554 372.757 46.4773 375.666 43.0754 388.429 60.1554 399.104 60.1554 381.367 36.4592M308.895 26.5115 299.627 26.5115C298.149 26.5115 296.953 27.755 296.953 29.28L296.953 39.6031 287.826 39.6031 287.826 29.28C287.735 22.6723 293.018 17.2417 299.625 17.1504 299.625 17.1504 299.627 17.1504 299.627 17.1504L308.895 17.1504 308.895 26.535M301.363 50.7708 310.607 50.7708C312.085 50.7708 313.282 49.5508 313.282 48.0492L313.282 37.7262 322.408 37.7262 322.408 48.0492C322.486 54.6487 317.207 60.0653 310.607 60.1554L301.363 60.1554 301.363 50.7708M150.388 17.1269 160.618 17.1269 160.618 25.9015 150.388 25.9015 150.388 43.5681C150.388 48.0727 152.735 51.4042 158.365 51.4042L159.679 51.4042 159.679 60.1554 156.113 60.1554C144.711 60.1554 141.497 52.9058 141.497 44.835L141.497 25.9015 126.505 25.9015 126.505 43.5681C126.505 48.0727 128.851 51.4042 134.482 51.4042L135.795 51.4042 135.795 60.1554 132.229 60.1554C120.827 60.1554 117.613 52.9058 117.613 44.835L117.613 25.9015 113.085 25.9015 113.085 17.1269 117.613 17.1269 117.613 6.42846 126.528 1.36077 126.528 17.1504 141.497 17.1504 141.497 6.42846 150.388 1.36077 150.388 17.1504M54.29 16.3058C51.4746 16.3058 48.6123 16.8688 46.055 17.995L46.055 1.36077 37.1396 1.36077 37.1396 60.1554 46.055 60.1554 46.055 26.5585C47.8381 25.3854 50.4188 24.6815 52.9292 24.6815 58.5365 24.6815 61.1408 27.8958 61.1408 32.6115L61.1408 60.1554 70.0562 60.1554 70.0562 31.3681C70.0562 22.6873 63.9562 16.3058 54.29 16.3058M99.4065 51.6154C97.7173 52.5538 95.5823 53.0935 93.4473 53.0935 86.8077 53.0935 84.2973 49.5977 84.2973 44.8115L84.2973 17.1269 75.4054 17.1269 75.4054 44.9758C75.4054 55.7915 81.5054 61 92.3681 61 97.5531 61 103.325 59.6392 108.322 57.4338L108.322 17.1269 99.4065 17.1269 99.4065 51.6154M20.5054 34.6762 17.1738 34.0896C13.8892 33.4796 11.0738 32.6819 11.0738 29.28 11.0738 26.3473 14.0535 24.9865 17.7604 24.9865 23.2973 24.9865 28.1304 27.5673 28.6935 27.8488L31.6965 19.6373C30.5469 19.0273 25.62 16.3058 17.8542 16.3058 10.7454 16.3058 2.06462 20.1535 2.06462 29.6788 2.06462 38.2423 8.00038 40.9873 13.725 42.0196L17.7135 42.7235C21.5612 43.4038 23.6727 44.8819 23.6727 47.4627 23.6727 50.7473 20.6696 52.2958 16.1415 52.2958 8.86846 52.2958 4.575 50.0669 3.355 49.5273L0 57.5746C1.05577 58.1142 6.00615 61 15.7192 61 25.1038 61 32.6585 56.2138 32.6585 47.2985 32.5646 38.9931 27.145 35.8492 20.5054 34.6762M188.513 35.4035 173.498 35.4035 173.498 32.2596C173.498 28.7638 175.211 25.0335 181.053 25.0335 186.683 25.0335 188.513 28.67 188.513 32.0719L188.513 35.4035ZM197.429 31.0865C197.429 23.2269 191.587 16.3058 181.1 16.3058 169.205 16.3058 164.63 23.9542 164.63 31.0865L164.63 45.3981C164.63 55.2519 170.777 61 181.1 61 190.226 61 194.942 55.5804 196.35 52.3192L188.842 47.6738C188.208 49.5977 185.229 52.2723 181.17 52.2723 175.657 52.2723 173.545 49.1285 173.545 45.1635L173.522 42.8173 197.429 42.8173 197.429 31.0865ZM203.13 31.11 203.13 60.1554 212.022 60.1554 212.022 31.9077C212.022 29.4442 213.383 25.2212 219.905 25.2212 220.937 25.2212 223.26 25.5262 223.987 25.6904L223.987 16.775C222.497 16.469 220.98 16.3196 219.459 16.3292 208.151 16.3292 203.13 23.6258 203.13 31.1335" fill="#FFFFFF" fill-rule="evenodd" transform="matrix(1.01321 0 0 1 170 182)"/></g></svg>