<?xml version="1.0" encoding="UTF-8" standalone="no"?>
<svg
   width="416"
   height="91"
   xml:space="preserve"
   overflow="hidden"
   version="1.1"
   id="svg15"
   sodipodi:docname="LogoFlickr.svg"
   inkscape:version="1.2.2 (732a01da63, 2022-12-09)"
   xmlns:inkscape="http://www.inkscape.org/namespaces/inkscape"
   xmlns:sodipodi="http://sodipodi.sourceforge.net/DTD/sodipodi-0.dtd"
   xmlns="http://www.w3.org/2000/svg"
   xmlns:svg="http://www.w3.org/2000/svg"><sodipodi:namedview
     id="namedview17"
     pagecolor="#505050"
     bordercolor="#ffffff"
     borderopacity="1"
     inkscape:showpageshadow="0"
     inkscape:pageopacity="0"
     inkscape:pagecheckerboard="1"
     inkscape:deskcolor="#505050"
     showgrid="false"
     inkscape:zoom="3.5841346"
     inkscape:cx="206.60496"
     inkscape:cy="49.244802"
     inkscape:window-width="1920"
     inkscape:window-height="991"
     inkscape:window-x="-9"
     inkscape:window-y="-9"
     inkscape:window-maximized="1"
     inkscape:current-layer="svg15" /><defs
     id="defs5"><clipPath
       id="clip0"><rect
         x="170"
         y="167"
         width="416"
         height="91"
         id="rect2" /></clipPath></defs><g
     clip-path="url(#clip0)"
     transform="translate(-170 -167)"
     id="g13"
     style="fill:#ffffff"><path
       d="M70.7778 66.7333C81.9465 66.7333 91 57.6798 91 46.5111 91 35.3444 81.9465 26.2889 70.7778 26.2889 59.609 26.2889 50.5556 35.3444 50.5556 46.5111 50.5556 57.6798 59.609 66.7333 70.7778 66.7333"
       fill="#FF0084"
       fill-rule="evenodd"
       transform="matrix(1.0084 0 0 1 170 167)"
       id="path7"
       style="fill:#ffffff" /><path
       d="M20.2222 66.7333C31.391 66.7333 40.4444 57.6798 40.4444 46.5111 40.4444 35.3444 31.391 26.2889 20.2222 26.2889 9.05349 26.2889 0 35.3444 0 46.5111 0 57.6798 9.05349 66.7333 20.2222 66.7333"
       fill="#0063DC"
       fill-rule="evenodd"
       transform="matrix(1.0084 0 0 1 170 167)"
       id="path9"
       style="fill:#ffffff" /><path
       d="M272.444 26.9158C278.755 26.9158 284.367 27.9876 289.156 30.3354L287.631 45.8458C283.77 43.5 279.928 42.4485 274.903 42.4485 265.787 42.4485 258.782 48.7982 258.782 59.3765 258.782 69.1196 266.954 75.4734 276.072 75.4734 280.86 75.4734 285.649 74.4178 289.156 72.5371L289.621 88.2902C284.367 90.0496 278.058 91 272.444 91 252.357 91 237.055 79.2327 237.055 59.0125 237.055 38.6689 252.357 26.9158 272.444 26.9158ZM405.417 26.9158C407.864 26.9158 410.438 27.2636 412.535 27.6276L411.486 45.2594C409.15 44.5475 406.817 44.5475 404.362 44.5475 394.55 44.5475 389.053 51.7305 389.053 63.7243L389.053 89.5844 368.042 89.5844 368.042 28.3313 387.195 28.3313 387.195 39.6194 387.421 39.6194C391.047 31.852 396.307 26.9178 405.417 26.9178ZM319.404 1.39938 319.404 54.0783 319.63 54.0783 337.155 28.3354 360.162 28.3354 339.03 56.4402 361.913 89.5844 336.457 89.5844 319.632 59.2511 319.406 59.2511 319.406 89.5844 298.379 89.5844 298.379 1.39736 319.406 1.39736ZM199.086 1.39938 199.086 89.5844 178.059 89.5844 178.059 1.39736 199.09 1.39736ZM230.41 28.3354 230.41 89.5844 209.395 89.5844 209.395 28.3313 230.41 28.3313ZM159.365 0C163.923 0 167.43 0.707778 170.111 1.17289L168.823 15.7531C167.076 15.1626 165.325 14.8027 162.164 14.8027 156.795 14.8027 154.702 18.566 154.702 24.572L154.702 28.3293 169.648 28.3293 169.648 43.132 154.7 43.132 154.7 89.5844 133.669 89.5844 133.669 43.134 121.293 43.134 121.293 28.3313 134.025 28.3313 134.025 24.574C134.025 6.35382 142.548 0 159.365 0ZM230.412 2.81089 230.412 18.3416 209.397 18.3416 209.397 2.81089Z"
       fill="#FFFFFF"
       fill-rule="evenodd"
       transform="matrix(1.0084 0 0 1 170 167)"
       id="path11"
       style="fill:#ffffff" /></g></svg>
