<?xml version="1.0" encoding="UTF-8" standalone="no"?>
<svg
   width="999.98987"
   height="999.99652"
   data-name="Layer 1"
   version="1.1"
   viewBox="0 0 999.98988 999.99652"
   id="svg14"
   sodipodi:docname="LogInstagram.svg"
   inkscape:version="1.2.2 (732a01da63, 2022-12-09)"
   xmlns:inkscape="http://www.inkscape.org/namespaces/inkscape"
   xmlns:sodipodi="http://sodipodi.sourceforge.net/DTD/sodipodi-0.dtd"
   xmlns="http://www.w3.org/2000/svg"
   xmlns:svg="http://www.w3.org/2000/svg">
  <sodipodi:namedview
     id="namedview16"
     pagecolor="#505050"
     bordercolor="#ffffff"
     borderopacity="1"
     inkscape:showpageshadow="0"
     inkscape:pageopacity="0"
     inkscape:pagecheckerboard="1"
     inkscape:deskcolor="#505050"
     showgrid="false"
     inkscape:zoom="0.804"
     inkscape:cx="481.96517"
     inkscape:cy="500.62189"
     inkscape:window-width="1920"
     inkscape:window-height="991"
     inkscape:window-x="-9"
     inkscape:window-y="-9"
     inkscape:window-maximized="1"
     inkscape:current-layer="svg14" />
  <defs
     id="defs4">
    <style
       id="style2">.cls-1{fill:#fff;}</style>
  </defs>
  <g
     id="g12"
     style="fill:#ffffff"
     transform="translate(8.1076037e-4,-1.9405086e-5)">
    <path
       d="M 243.27,500.5 C 243.55,642.3 358.71,756.99 500.48,756.72 642.25,756.45 757.02,641.3 756.75,499.5 756.48,357.7 641.29,242.98 499.5,243.26 357.71,243.54 243,358.72 243.27,500.5 m 90.06,-0.18 a 166.67,166.67 0 1 1 167,166.34 166.65,166.65 0 0 1 -167,-166.34"
       id="path6"
       style="fill:#ffffff" />
    <path
       d="m 706.37,232.77 a 60,60 0 1 0 59.88,-60.1 60,60 0 0 0 -59.88,60.1"
       id="path8"
       style="fill:#ffffff" />
    <path
       d="m 292.92,3.4969 c -53.2,2.51 -89.53,11 -121.29,23.48 -32.87,12.81 -60.73,30 -88.45,57.82 -27.72,27.82 -44.79,55.7 -57.51,88.62 -12.31,31.83 -20.65,68.19 -23,121.42 -2.35,53.23 -2.87,70.34 -2.61,206.12 0.26,135.78 0.86,152.8 3.44,206.14 2.54,53.19 11,89.51 23.48,121.28 12.83,32.87 30,60.72 57.83,88.45 27.83,27.73 55.69,44.76 88.69,57.5 31.8,12.29 68.17,20.67 121.39,23 53.22,2.33 70.35,2.87 206.09,2.61 135.74,-0.26 152.83,-0.86 206.16,-3.39 53.33,-2.53 89.46,-11.05 121.24,-23.47 32.87,-12.86 60.74,-30 88.45,-57.84 27.71,-27.84 44.77,-55.74 57.48,-88.68 12.32,-31.8 20.69,-68.17 23,-121.35 2.33,-53.37 2.88,-70.41 2.62,-206.17 -0.26,-135.76 -0.87,-152.78 -3.4,-206.1 -2.53,-53.32 -11,-89.53 -23.47,-121.32 -12.85,-32.87 -30,-60.7 -57.82,-88.45 -27.82,-27.75 -55.74,-44.8 -88.67,-57.48 -31.82,-12.31 -68.17,-20.7 -121.39,-23 -53.22,-2.3 -70.35,-2.89 -206.14,-2.63 -135.79,0.26 -152.79,0.84 -206.12,3.44 m 5.84,903.88 c -48.75,-2.12 -75.22,-10.22 -92.86,-17 -23.36,-9 -40,-19.88 -57.58,-37.29 -17.58,-17.41 -28.38,-34.11 -37.5,-57.42 -6.85,-17.64 -15.1,-44.08 -17.38,-92.83 -2.48,-52.69 -3,-68.51 -3.29,-202 -0.29,-133.49 0.22,-149.29 2.53,-202 2.08,-48.71 10.23,-75.21 17,-92.84 9,-23.39 19.84,-40 37.29,-57.57 17.45,-17.57 34.1,-28.39 57.43,-37.51 17.62,-6.88 44.06,-15.06 92.79,-17.38 52.73,-2.5 68.53,-3 202,-3.29 133.47,-0.29 149.31,0.21 202.06,2.53 48.71,2.12 75.22,10.19 92.83,17 23.37,9 40,19.81 57.57,37.29 17.57,17.48 28.4,34.07 37.52,57.45 6.89,17.57 15.07,44 17.37,92.76 2.51,52.73 3.08,68.54 3.32,202 0.24,133.46 -0.23,149.31 -2.54,202 -2.13,48.75 -10.21,75.23 -17,92.89 -9,23.35 -19.85,40 -37.31,57.56 -17.46,17.56 -34.09,28.38 -57.43,37.5 -17.6,6.87 -44.07,15.07 -92.76,17.39 -52.73,2.48 -68.53,3 -202.05,3.29 -133.52,0.29 -149.27,-0.25 -202,-2.53"
       id="path10"
       style="fill:#ffffff" />
  </g>
</svg>
